# xmcd CD database file
#
# Track frame offsets:
#	150
#	25612
#	49437
#	86437
#	103337
#	147112
#	163162
#
# Disc length: 2585 seconds
#
# Revision: 1
# Processed by: cddbd v1.5PL3 Copyright (c) Steve Scherf et al.
# Submitted via: jetAudio 5
#
DISCID=590a1707
DTITLE=Albert Collins and the Icebreakers - LIVE IN JAPAN
DYEAR=1900
DGENRE=
TTITLE0=listen here
TTITLE1=tired man
TTITLE2=if trouble was money
TTITLE3=jealous man
TTITLE4=stormy monday
TTITLE5=skatin'
TTITLE6=all about my girl
EXTD=
EXTT0=
EXTT1=
EXTT2=
EXTT3=
EXTT4=
EXTT5=
EXTT6=
PLAYORDER=
